<?xml version="1.0" standalone="no"?>
<!DOCTYPE svg PUBLIC "-//W3C//DTD SVG 20010904//EN"
 "http://www.w3.org/TR/2001/REC-SVG-20010904/DTD/svg10.dtd">
<svg version="1.0" xmlns="http://www.w3.org/2000/svg"
 width="700.000000pt" height="700.000000pt" viewBox="0 0 700.000000 700.000000"
 preserveAspectRatio="xMidYMid meet">
<metadata>
Created by potrace 1.11, written by Peter Selinger 2001-2013
</metadata>
<g transform="translate(0.000000,700.000000) scale(0.100000,-0.100000)"
fill="#000000" stroke="none">
<path d="M4898 6995 c-2 -1 -30 -5 -62 -9 -212 -22 -495 -106 -656 -194 -267
-146 -382 -236 -605 -476 -6 -6 -31 -38 -55 -71 -25 -33 -47 -62 -50 -65 -20
-18 -111 -174 -161 -275 -49 -100 -121 -291 -134 -354 -2 -9 -10 -45 -18 -81
-8 -36 -18 -90 -22 -120 -4 -30 -10 -64 -13 -75 -3 -11 -7 -411 -9 -890 -2
-478 -6 -871 -8 -873 -1 -2 -40 22 -86 52 -408 275 -915 378 -1431 290 -393
-66 -803 -294 -1078 -600 -78 -86 -96 -109 -153 -190 -158 -225 -263 -468
-315 -729 -32 -157 -34 -179 -37 -365 -2 -170 12 -326 44 -460 168 -725 738
-1292 1466 -1460 50 -12 113 -24 140 -27 28 -3 54 -7 58 -10 5 -3 88 -7 185
-8 156 -3 301 8 405 29 15 3 39 8 55 11 234 47 540 186 737 334 93 71 113 88
225 201 179 178 262 294 370 515 124 253 192 526 194 780 l1 70 -387 0 -388 0
-1 -45 c0 -25 -2 -54 -4 -65 -2 -11 -6 -38 -9 -60 -2 -22 -10 -62 -16 -90 -6
-27 -13 -57 -15 -65 -2 -9 -17 -51 -34 -95 -60 -155 -160 -305 -282 -422 -62
-59 -153 -133 -165 -133 -4 0 -15 -6 -23 -14 -27 -24 -172 -93 -253 -119 -254
-85 -547 -76 -788 22 -41 17 -77 31 -79 31 -2 0 370 374 827 830 457 457 833
830 836 830 3 0 6 -92 6 -205 l0 -205 223 -1 c316 0 382 0 475 0 l82 1 0 675
c0 371 2 675 5 675 3 0 34 -21 70 -46 151 -105 385 -213 573 -263 95 -26 142
-35 282 -57 81 -13 359 -12 460 1 142 18 181 25 190 30 4 2 21 7 38 10 41 7
182 51 252 78 153 59 420 215 518 302 15 13 38 33 52 45 144 123 308 319 397
475 145 252 230 505 261 775 18 157 2 507 -28 605 -5 17 -11 41 -14 55 -2 14
-9 44 -15 67 -155 572 -578 1055 -1126 1283 -155 64 -294 102 -480 131 -62 10
-418 22 -427 14z m352 -791 c557 -96 967 -576 971 -1137 1 -167 -27 -311 -89
-457 -65 -154 -143 -270 -254 -378 -40 -39 -84 -79 -98 -90 -153 -116 -320
-193 -505 -234 -37 -8 -125 -13 -230 -12 -154 0 -180 3 -275 28 -460 124 -785
477 -865 941 -22 124 -13 345 18 466 61 233 167 412 346 585 31 30 59 54 63
54 4 0 13 6 21 14 49 50 231 144 349 181 78 25 101 30 188 44 79 13 272 10
360 -5z m-3110 -3111 c90 -15 258 -67 286 -88 15 -10 -78 -107 -759 -788
l-776 -776 -30 72 c-180 434 -61 965 288 1282 76 69 85 76 141 115 241 164
562 234 850 183z"/>
</g>
</svg>
