<?xml version="1.0" encoding="utf-8"?>
<!-- Generator: Adobe Illustrator 19.0.0, SVG Export Plug-In . SVG Version: 6.00 Build 0)  -->
<svg version="1.1" id="Layer_1" xmlns="http://www.w3.org/2000/svg" xmlns:xlink="http://www.w3.org/1999/xlink" x="0px" y="0px"
	 viewBox="-445 2061 108 30" style="enable-background:new -445 2061 108 30;" xml:space="preserve">
<style type="text/css">
	.st0{fill:#BBD6D5;}
	.st1{fill:#705D34;}
</style>
<path id="XMLID_615_" class="st0" d="M-342,2091h-103v-30h103c2.8,0,5,2.3,5,5v20C-337,2088.8-339.3,2091-342,2091z"/>
<g>
	<path class="st1" d="M-395.4,2077.1c-0.3-0.3-0.4-0.6-0.4-1.1s0.1-0.8,0.4-1.1c0.3-0.3,0.7-0.4,1.3-0.4h6.2c0.6,0,1,0.1,1.3,0.4
		c0.3,0.3,0.4,0.6,0.4,1.1s-0.1,0.8-0.4,1.1c-0.3,0.3-0.7,0.4-1.3,0.4h-6.2C-394.7,2077.5-395.1,2077.4-395.4,2077.1z"/>
</g>
</svg>
