<?xml version="1.0" encoding="utf-8"?>
<!-- Generator: Adobe Illustrator 19.0.0, SVG Export Plug-In . SVG Version: 6.00 Build 0)  -->
<svg version="1.1" id="Layer_1" xmlns="http://www.w3.org/2000/svg" xmlns:xlink="http://www.w3.org/1999/xlink" x="0px" y="0px"
	 viewBox="-919 526 80 30" style="enable-background:new -919 526 80 30;" xml:space="preserve">
<style type="text/css">
	.st0{fill:#F8F7F5;}
	.st1{fill:#E2DFD6;}
</style>
<path id="XMLID_139_" class="st0" d="M-844,556h-75v-30h75c2.8,0,5,2.3,5,5v20C-839,553.8-841.3,556-844,556z"/>
<g>
	<path class="st1" d="M-870.7,539.9c0.3,0.3,0.5,0.7,0.5,1.1c0,0.5-0.2,0.8-0.5,1.1s-0.7,0.5-1.1,0.5h-5.6v5.6
		c0,0.5-0.1,0.8-0.4,1.2c-0.3,0.3-0.7,0.5-1.1,0.5s-0.8-0.2-1.1-0.5c-0.3-0.3-0.5-0.7-0.5-1.2v-5.6h-5.6c-0.5,0-0.8-0.2-1.1-0.5
		c-0.3-0.3-0.4-0.7-0.4-1.1c0-0.5,0.1-0.8,0.4-1.1c0.3-0.3,0.7-0.4,1.1-0.4h5.6v-5.6c0-0.5,0.1-0.8,0.5-1.1c0.3-0.3,0.7-0.5,1.1-0.5
		s0.8,0.2,1.1,0.5c0.3,0.3,0.4,0.7,0.4,1.1v5.6h5.6C-871.3,539.4-871,539.6-870.7,539.9z"/>
</g>
</svg>
