<?xml version="1.0" encoding="utf-8"?>
<!-- Generator: Adobe Illustrator 19.0.0, SVG Export Plug-In . SVG Version: 6.00 Build 0)  -->
<svg version="1.1" id="Layer_1" xmlns="http://www.w3.org/2000/svg" xmlns:xlink="http://www.w3.org/1999/xlink" x="0px" y="0px"
	 viewBox="-909 491 100 100" style="enable-background:new -909 491 100 100;" xml:space="preserve">
<style type="text/css">
	.st0{fill:#FEF8EA;}
</style>
<path class="st0" d="M-830.5,541h-7.1v-8.5c0-11.8-9.6-21.4-21.4-21.4s-21.4,9.6-21.4,21.4v8.5h-7.1c-0.8,0-1.5,0.7-1.5,1.5v27
	c0,0.8,0.7,1.5,1.5,1.5h57c0.8,0,1.5-0.7,1.5-1.5v-27C-829,541.7-829.7,541-830.5,541z M-871.8,532.5c0-7.1,5.8-12.8,12.8-12.8
	s12.8,5.8,12.8,12.8v8.5h-25.6V532.5z"/>
</svg>
