<?xml version="1.0" encoding="utf-8"?>
<!-- Generator: Adobe Illustrator 19.0.0, SVG Export Plug-In . SVG Version: 6.00 Build 0)  -->
<svg version="1.1" id="Layer_1" xmlns="http://www.w3.org/2000/svg" xmlns:xlink="http://www.w3.org/1999/xlink" x="0px" y="0px"
	 viewBox="0 0 1665 320" style="enable-background:new 0 0 1665 320;" xml:space="preserve">
<style type="text/css">
	.st0{opacity:0.15;enable-background:new    ;}
	.st1{fill:#8FA740;}
	.st2{fill:#9ECC46;}
	.st3{fill:#8D7D5D;}
</style>
<g id="manager">
	<g id="Color">
	</g>
	<g id="Overlay">
	</g>
	<g id="XMLID_4_">
		<path id="XMLID_32_" class="st0" d="M255.4,255.4c-9,9-21.6,14.6-35.4,14.6c-13.8,0-26.3-5.6-35.4-14.6l7.1-7.1
			c7.3,7.3,17.2,11.7,28.2,11.7c11,0,21.1-4.5,28.2-11.7L255.4,255.4z"/>
		<path id="XMLID_87_" class="st0" d="M244.5,251.6l7.1,7.1c1.3-1,2.5-2.2,3.7-3.4l-7.1-7.1C247.1,249.6,245.8,250.6,244.5,251.6z"
			/>
		<path id="XMLID_89_" class="st0" d="M465.4,255.4c-9,9-21.6,14.6-35.4,14.6c-13.8,0-26.3-5.6-35.4-14.6l7.1-7.1
			c7.3,7.3,17.2,11.7,28.2,11.7s21.1-4.5,28.2-11.7L465.4,255.4z"/>
		<path id="XMLID_85_" class="st0" d="M454.5,251.6l7.1,7.1c1.3-1,2.5-2.2,3.7-3.4l-7.1-7.1C457.1,249.6,455.8,250.6,454.5,251.6z"
			/>
		<path id="XMLID_77_" class="st0" d="M360,239.4v16.3c1.8-1.7,3.5-3.6,5-5.7v-30C365,227,363.2,233.7,360,239.4z"/>
		<path id="XMLID_57_" class="st0" d="M365,220c0,22.1-17.9,40-40,40c-11,0-21.1-4.5-28.2-11.7l-7.1,7c9,9,21.6,14.6,35.4,14.6
			c16.4,0,30.8-7.9,40-20L365,220z"/>
		<path id="XMLID_83_" class="st0" d="M293.4,258.7l7.1-7.1c-1.3-1-2.6-2.1-3.7-3.3l-3.9,3.9l-3.1,3.1
			C290.8,256.6,292.1,257.7,293.4,258.7z"/>
		<path id="XMLID_82_" class="st0" d="M550.4,225c2.4,19.8,19.3,35,39.7,35c11.1,0,21.1-4.5,28.2-11.7l7.1,7.1
			c-9,9-21.6,14.6-35.4,14.6c-25.9,0-47.2-19.7-49.7-44.9v-0.1L550.4,225z"/>
		<path id="XMLID_103_" class="st0" d="M541.1,230.1h10.2c-0.4-1.6-0.8-3.3-1-5h-10.1v0.1C540.5,226.8,540.7,228.4,541.1,230.1z"/>
		<path id="XMLID_97_" class="st0" d="M820.4,184.7c9,9,14.6,21.6,14.6,35.4v50h-10v-50c0-11-4.5-21.1-11.7-28.2L820.4,184.7z"/>
		<path id="XMLID_108_" class="st0" d="M813.4,191.8c1.2,1.2,2.3,2.4,3.3,3.7l7.1-7.1c-1-1.3-2.2-2.5-3.4-3.7L813.4,191.8z"/>
		<g id="XMLID_1_">
			<path id="XMLID_166_" class="st1" d="M149.9,75c0,24.9,20.2,45,45,45c12.4,0,23.7-5,31.8-13.2l21.2,21.2
				c-13.6,13.6-32.3,22-53,22c-16.9,0-32.5-5.5-45-15V75z"/>
			<path id="XMLID_165_" class="st0" d="M149.9,75c0,24.9,20.2,45,45,45c12.4,0,23.7-5,31.8-13.2l21.2,21.2
				c-13.6,13.6-32.3,22-53,22c-16.9,0-32.5-5.5-45-15V75z"/>
			<path id="XMLID_164_" class="st1" d="M195,0c-41.4,0-75,33.6-75,75c0,0,0,88.2,0,112.6h30V75c0-24.9,20.2-45,45-45s45,20.2,45,45
				c0,12.4-5,23.7-13.2,31.8l21.2,21.2c13.6-13.6,22-32.3,22-53C270,33.6,236.4,0,195,0z"/>
			<path id="XMLID_163_" class="st0" d="M149.9,108.7v26.4c2.4,1.8,4.9,3.5,7.5,4.9V99.9c-4.8-7.1-7.5-15.7-7.5-24.9V108.7z"/>
			<path id="XMLID_162_" class="st0" d="M221.1,111.7l21.4,21.4c1.9-1.6,3.8-3.3,5.5-5l-21.2-21.2
				C225.1,108.7,223.2,110.3,221.1,111.7z"/>
			<g id="XMLID_155_">
				<path id="XMLID_161_" class="st2" d="M55.6,235.7c16.7,8,37.3,5,51.2-8.8c8.8-8.8,13.2-20.3,13.2-31.8h30c0,19.2-7.4,38.4-22,53
					c-25.6,25.6-65.2,28.9-94.4,9.5L55.6,235.7z"/>
				<path id="XMLID_160_" class="st0" d="M55.6,235.7c16.7,8,37.3,5,51.2-8.8c8.8-8.8,13.2-20.3,13.2-31.8h30c0,19.2-7.4,38.4-22,53
					c-25.6,25.6-65.2,28.9-94.4,9.5L55.6,235.7z"/>
				<path id="XMLID_157_" class="st2" d="M22,142c-29.3,29.3-29.3,76.8,0,106.1c3.6,3.6,7.5,6.8,11.7,9.5c0,0,103.9-103.9,104-104
					c-2.8-4.2-5.9-8.1-9.5-11.7C98.7,112.7,51.3,112.7,22,142z M34.4,214.5L34.4,214.5c-8-16.7-5-37.3,8.8-51.2
					c13.9-13.9,34.5-16.8,51.2-8.8l0,0L34.4,214.5z"/>
				<path id="XMLID_156_" class="st0" d="M33.6,257.7c2.2,1.5,4.4,2.8,6.7,3.9l23-23c-2.7-0.7-5.3-1.6-7.8-2.9L33.6,257.7z"/>
			</g>
			<path id="XMLID_154_" class="st0" d="M120,181.9l17.6-17.6v-10.6L120,171.3C120,175.2,120,178.8,120,181.9z"/>
			<path id="XMLID_118_" class="st3" d="M820.4,184.7c9,9,14.6,21.6,14.6,35.4v50h-10v-50c0-11-4.5-21.1-11.7-28.2L820.4,184.7z"/>
			<path id="XMLID_109_" class="st3" d="M813.4,191.8c-7.3-7.3-17.2-11.7-28.3-11.7c-22.1,0-40,17.9-40,40v50h-10v-50
				c0-22.1-17.9-40-40-40s-40,17.9-40,40v50h-10v-50c0-27.6,22.4-50,50-50c19.8,0,36.9,11.5,45,28.2l0,0c8.1-16.7,25.2-28.2,45-28.2
				c13.8,0,26.3,5.6,35.4,14.6L813.4,191.8z"/>
			<rect id="XMLID_107_" x="485" y="170" class="st3" width="50" height="10"/>
			<rect id="XMLID_105_" x="505" y="145.1" class="st3" width="10" height="125"/>
			<path id="XMLID_102_" class="st3" d="M255.4,255.4c-9,9-21.6,14.6-35.4,14.6c-13.8,0-26.3-5.6-35.4-14.6l7.1-7.1
				c7.3,7.3,17.2,11.7,28.2,11.7c11,0,21.1-4.5,28.2-11.7L255.4,255.4z"/>
			<path id="XMLID_100_" class="st3" d="M248.3,248.3c6.2-6.2,10.3-14.2,11.4-23.3h-89.5l0,0c-0.2-1.6-0.3-3.3-0.3-5
				c0-27.6,22.4-50,50-50c13.8,0,26.3,5.6,35.4,14.6l-7.1,7.1c-7.3-7.3-17.2-11.7-28.2-11.7c-20.4,0-37.3,15.3-39.7,35h89.4l0,0
				c0.2,1.6,0.3,3.3,0.3,5c0,13.8-5.6,26.3-14.6,35.4L248.3,248.3z"/>
			<path id="XMLID_99_" class="st3" d="M465.4,255.4c-9,9-21.6,14.6-35.4,14.6c-13.8,0-26.3-5.6-35.4-14.6l7.1-7.1
				c7.3,7.3,17.2,11.7,28.2,11.7s21.1-4.5,28.2-11.7L465.4,255.4z"/>
			<path id="XMLID_98_" class="st3" d="M458.3,248.3c6.2-6.2,10.3-14.2,11.4-23.3h-89.5l0,0c-0.2-1.6-0.3-3.3-0.3-5
				c0-27.6,22.4-50,50-50c13.8,0,26.3,5.6,35.4,14.6l-7.1,7.1c-7.3-7.3-17.2-11.7-28.2-11.7c-20.4,0-37.3,15.3-39.7,35h89.4l0,0
				c0.2,1.6,0.3,3.3,0.3,5c0,13.8-5.6,26.3-14.6,35.4L458.3,248.3z"/>
			<path id="XMLID_95_" class="st3" d="M296.7,248.3c-7.3-7.3-11.7-17.2-11.7-28.3v-50h-10v50c0,13.8,5.6,26.3,14.6,35.4
				L296.7,248.3z"/>
			<path id="XMLID_94_" class="st3" d="M365,220c0,22.1-17.9,40-40,40c-11,0-21.1-4.5-28.2-11.7l-7.1,7c9,9,21.6,14.6,35.4,14.6
				c16.4,0,30.8-7.9,40-20L365,220z"/>
			<path id="XMLID_93_" class="st3" d="M296.7,298.3C304,305.6,314,310,325,310c22.1,0,40-17.9,40-40v-50v-50h10v50v50
				c0,27.6-22.4,50-50,50c-13.8,0-26.3-5.6-35.4-14.6L296.7,298.3z"/>
			<path id="XMLID_88_" class="st3" d="M590,170c-27.6,0-50,22.4-50,50c0,1.6,0.1,3.4,0.3,5h99.5c0,0,0.3-3.3,0.3-5
				C640,192.5,617.7,170,590,170z M550.4,215.1c2.4-19.8,19.3-35,39.7-35c20.4,0,37.3,15.3,39.7,35H550.4z"/>
			<path id="XMLID_86_" class="st3" d="M550.4,225c2.4,19.8,19.3,35,39.7,35c11.1,0,21.1-4.5,28.2-11.7l7.1,7.1
				c-9,9-21.6,14.6-35.4,14.6c-25.9,0-47.2-19.7-49.7-44.9v-0.1L550.4,225z"/>
			<path id="XMLID_38_" class="st1" d="M1480.4,223.6c1.8,22.1,20.3,39.5,42.9,39.5c11.9,0,22.6-4.8,30.4-12.6l4.9,4.9
				c-9,9-21.6,14.6-35.4,14.6c-26.4,0-48.1-20.5-49.9-46.5H1480.4z"/>
			<path id="XMLID_27_" class="st1" d="M1523.3,170c-27.6,0-50,22.4-50,50c0,1.2,0,2.3,0.1,3.5h99.8c0.1-1.1,0.1-2.3,0.1-3.5
				C1573.3,192.5,1550.9,170,1523.3,170z M1480.4,216.5c1.8-22.1,20.3-39.5,42.9-39.5s41.1,17.4,42.9,39.5H1480.4z"/>
			<path id="XMLID_24_" class="st1" d="M1033.5,184.7c9,9,14.6,21.6,14.6,35.4v50h-7v-50c0-11.9-4.9-22.6-12.6-30.4L1033.5,184.7z"
				/>
			<path id="XMLID_3_" class="st1" d="M998.2,170c-21.1,0-39.2,13.1-46.5,31.6c-7.4-18.5-25.4-31.6-46.5-31.6c-27.6,0-50,22.4-50,50
				v50h7v-50c0-23.7,19.2-43,43-43c23.7,0,43,19.2,43,43v50l0,0h7v-50c0-23.7,19.2-43,43-43c11.9,0,22.6,4.9,30.4,12.6l4.9-4.9
				C1024.5,175.6,1011.9,170,998.2,170z"/>
			<path id="XMLID_20_" class="st1" d="M1658.7,189.6c-7.8-7.8-18.5-12.6-30.4-12.6c-23.7,0-43,19.2-43,43v50h-7v-50
				c0-27.6,22.4-50,50-50c13.8,0,26.3,5.6,35.4,14.6L1658.7,189.6z"/>
			<path id="XMLID_18_" class="st0" d="M1480.4,223.6c1.8,22.1,20.3,39.5,42.9,39.5c11.9,0,22.6-4.8,30.4-12.6l4.9,4.9
				c-9,9-21.6,14.6-35.4,14.6c-26.4,0-48.1-20.5-49.9-46.5H1480.4z"/>
			<path id="XMLID_17_" class="st0" d="M1480.4,223.6h-6.1h-1c0.1,1.7,0.3,3.4,0.6,5h7.1C1480.8,226.9,1480.6,225.2,1480.4,223.6z"
				/>
			<path id="XMLID_101_" class="st0" d="M1033.5,184.7c9,9,14.6,21.6,14.6,35.4v50h-7v-50c0-11.9-4.9-22.6-12.6-30.4L1033.5,184.7z"
				/>
			<path id="XMLID_60_" class="st0" d="M1028.6,189.6c1.2,1.2,2.3,2.4,3.3,3.7l5-5c-1-1.3-2.2-2.5-3.4-3.7L1028.6,189.6z"/>
			<g id="XMLID_14_">
				<path id="XMLID_45_" class="st1" d="M1146.2,220c0,23.7-19.2,43-43,43c-11.9,0-22.7-4.9-30.4-12.7l-4.9,4.9
					c9,9.1,21.6,14.7,35.4,14.7c18.3,0,34.3-9.8,43-24.4L1146.2,220z"/>
				<path id="XMLID_6_" class="st0" d="M1146.2,220c0,23.7-19.2,43-43,43c-11.9,0-22.7-4.9-30.4-12.7l-4.9,4.9
					c9,9.1,21.6,14.7,35.4,14.7c18.3,0,34.3-9.8,43-24.4L1146.2,220z"/>
				<path id="XMLID_11_" class="st1" d="M1067.7,255.4c-9-9-14.6-21.6-14.6-35.4c0-27.6,22.4-50,50-50s50,22.4,50,50v50h-7v-50
					c0-23.7-19.2-43-43-43s-43,19.2-43,43c0,11.9,4.8,22.6,12.6,30.4"/>
				<path id="XMLID_47_" class="st0" d="M1071.5,258.7l5-5c-1.3-1-2.6-2.2-3.7-3.3l-4.9,4.9C1069,256.6,1070.2,257.7,1071.5,258.7z"
					/>
				<path id="XMLID_48_" class="st0" d="M1141.2,240.2v12.4c1.8-2.2,3.6-4.5,5-6.9v-25.6C1146.2,227.3,1144.3,234.1,1141.2,240.2z"
					/>
			</g>
			<g id="XMLID_8_">
				<path id="XMLID_66_" class="st1" d="M1356.2,220c0,23.7-19.2,43-43,43c-11.9,0-22.7-4.9-30.4-12.7l-4.9,4.9
					c9,9.1,21.6,14.7,35.4,14.7c18.3,0,34.3-9.8,43-24.4L1356.2,220z"/>
				<path id="XMLID_65_" class="st0" d="M1356.2,220c0,23.7-19.2,43-43,43c-11.9,0-22.7-4.9-30.4-12.7l-4.9,4.9
					c9,9.1,21.6,14.7,35.4,14.7c18.3,0,34.3-9.8,43-24.4L1356.2,220z"/>
				<path id="XMLID_64_" class="st1" d="M1277.8,255.4c-9-9-14.6-21.6-14.6-35.4c0-27.6,22.4-50,50-50c27.6,0,50,22.4,50,50v50h-7
					v-50c0-23.7-19.2-43-43-43s-43,19.2-43,43c0,11.9,4.8,22.6,12.6,30.4"/>
				<path id="XMLID_63_" class="st0" d="M1281.5,258.7l5-5c-1.3-1-2.6-2.2-3.7-3.3l-4.9,4.9C1279,256.6,1280.2,257.7,1281.5,258.7z"
					/>
				<path id="XMLID_58_" class="st0" d="M1351.3,240.2v12.4c1.8-2.2,3.6-4.5,5-6.9v-25.6C1356.2,227.3,1354.4,234.1,1351.3,240.2z"
					/>
			</g>
			<g id="XMLID_21_">
				<path id="XMLID_16_" class="st1" d="M1461.2,220c0,23.7-19.2,43-43,43c-11.9,0-22.7-4.9-30.4-12.7l-4.9,4.9
					c9,9.1,21.6,14.7,35.4,14.7c18.3,0,34.3-9.8,43-24.5L1461.2,220z"/>
				<path id="XMLID_2_" class="st0" d="M1461.2,220c0,23.7-19.2,43-43,43c-11.9,0-22.7-4.9-30.4-12.7l-4.9,4.9
					c9,9.1,21.6,14.7,35.4,14.7c18.3,0,34.3-9.8,43-24.5L1461.2,220z"/>
				<path id="XMLID_12_" class="st1" d="M1468.2,270v-50c0-27.6-22.4-50-50-50c-27.6,0-50,22.4-50,50c0,13.8,5.5,26.3,14.6,35.4
					l4.9-4.9c-7.8-7.8-12.6-18.5-12.6-30.4c0-23.7,19.2-43,43-43s43,19.2,43,43v50c0,23.7-19.2,43-43,43c-11.9,0-22.7-4.9-30.4-12.7
					l-4.9,4.9c9,9.1,21.6,14.7,35.4,14.7C1445.9,320.1,1468.2,297.6,1468.2,270z"/>
				<path id="XMLID_19_" class="st0" d="M1386.5,258.7l5-5c-1.3-1-2.6-2.2-3.7-3.3l-4.9,4.9C1384,256.6,1385.2,257.7,1386.5,258.7z"
					/>
				<path id="XMLID_15_" class="st0" d="M1456.3,240.2v12.4c1.8-2.2,3.6-4.5,5-6.9v-25.6C1461.2,227.3,1459.4,234.1,1456.3,240.2z"
					/>
			</g>
			<g id="XMLID_50_">
				<path id="XMLID_49_" class="st1" d="M1243.6,184.7c9,9,14.6,21.6,14.6,35.4v50h-7v-50c0-11.9-4.9-22.6-12.6-30.4L1243.6,184.7z"
					/>
				<path id="XMLID_13_" class="st0" d="M1243.6,184.7c9,9,14.6,21.6,14.6,35.4v50h-7v-50c0-11.9-4.9-22.6-12.6-30.4L1243.6,184.7z"
					/>
				<path id="XMLID_55_" class="st1" d="M1243.6,184.7c-9-9-21.6-14.6-35.4-14.6c-27.6,0-50,22.4-50,50v50h7v-50
					c0-23.7,19.2-43,43-43c11.9,0,22.6,4.9,30.4,12.6L1243.6,184.7z"/>
				<path id="XMLID_54_" class="st0" d="M1238.6,189.7c1.2,1.2,2.3,2.4,3.3,3.7l5-5c-1-1.3-2.2-2.5-3.4-3.7L1238.6,189.7z"/>
			</g>
		</g>
	</g>
</g>
</svg>
