<?xml version="1.0" encoding="utf-8"?>
<!-- Generator: Adobe Illustrator 19.0.0, SVG Export Plug-In . SVG Version: 6.00 Build 0)  -->
<svg version="1.1" id="Layer_1" xmlns="http://www.w3.org/2000/svg" xmlns:xlink="http://www.w3.org/1999/xlink" x="0px" y="0px"
	 viewBox="410 0 1655 320" style="enable-background:new 410 0 1655 320;" xml:space="preserve">
<style type="text/css">
	.st0{fill:#8FA740;}
	.st1{opacity:0.15;}
	.st2{fill:#9ECC46;}
	.st3{fill:#8D7D5D;}
</style>
<g>
	<path id="XMLID_55_" class="st0" d="M560,75c0,24.9,20.1,45,45,45c12.4,0,23.7-5,31.8-13.2L658,128c-13.6,13.6-32.3,22-53,22
		c-16.9,0-32.5-5.6-45-15L560,75z"/>
	<path id="XMLID_54_" class="st1" d="M560,75c0,24.9,20.1,45,45,45c12.4,0,23.7-5,31.8-13.2L658,128c-13.6,13.6-32.3,22-53,22
		c-16.9,0-32.5-5.6-45-15L560,75z"/>
	<path id="XMLID_53_" class="st0" d="M605,0c-41.4,0-75,33.6-75,75c0,0,0,88.2,0,112.5h30V75c0-24.9,20.1-45,45-45
		c24.9,0,45,20.1,45,45c0,12.4-5,23.7-13.2,31.8L658,128c13.6-13.6,22-32.3,22-53C680,33.6,646.4,0,605,0z"/>
	<path id="XMLID_52_" class="st1" d="M560,108.6l0,26.4c2.4,1.8,4.9,3.5,7.5,5V99.9c-4.7-7.1-7.5-15.6-7.5-24.8V108.6z"/>
	<path id="XMLID_50_" class="st1" d="M631.1,111.7l21.4,21.4c1.9-1.6,3.8-3.3,5.6-5l-21.2-21.2C635,108.6,633.1,110.2,631.1,111.7z"
		/>
	<g id="XMLID_45_">
		<path id="XMLID_49_" class="st2" d="M465.6,235.6c16.7,8,37.4,5.1,51.2-8.8c8.8-8.8,13.2-20.3,13.2-31.8l30,0
			c0,19.2-7.3,38.4-22,53c-25.7,25.7-65.3,28.8-94.4,9.5L465.6,235.6z"/>
		<path id="XMLID_48_" class="st1" d="M465.6,235.6c16.7,8,37.4,5.1,51.2-8.8c8.8-8.8,13.2-20.3,13.2-31.8l30,0
			c0,19.2-7.3,38.4-22,53c-25.7,25.7-65.3,28.8-94.4,9.5L465.6,235.6z"/>
		<path id="XMLID_47_" class="st2" d="M432,142c-29.3,29.3-29.3,76.8,0,106.1c3.6,3.6,7.5,6.8,11.7,9.5c0,0,103.9-103.9,103.9-103.9
			c-2.7-4.1-5.9-8-9.5-11.7C508.7,112.7,461.3,112.7,432,142z M444.4,214.4L444.4,214.4c-8-16.7-5.1-37.4,8.8-51.2
			c13.9-13.9,34.5-16.8,51.2-8.8l0,0L444.4,214.4z"/>
		<path id="XMLID_46_" class="st1" d="M443.6,257.6c2.2,1.4,4.4,2.7,6.7,3.9l23.1-23.1c-2.7-0.7-5.3-1.6-7.8-2.8L443.6,257.6z"/>
	</g>
	<path id="XMLID_44_" class="st1" d="M530,181.8l17.6-17.6l0-10.6L530,171.2C530,175.2,530,178.7,530,181.8z"/>
	<path id="XMLID_43_" class="st3" d="M1230.4,184.6c9,9,14.6,21.5,14.6,35.4v50h-10v-50c0-11-4.5-21-11.7-28.3L1230.4,184.6z"/>
	<path id="XMLID_42_" class="st3" d="M1223.3,191.7c-7.2-7.2-17.2-11.7-28.3-11.7c-22.1,0-40,17.9-40,40v50h-10v-50
		c0-22.1-17.9-40-40-40s-40,17.9-40,40v50h-10v-50c0-27.6,22.4-50,50-50c19.8,0,36.9,11.5,45,28.2l0,0c8.1-16.7,25.2-28.2,45-28.2
		c13.8,0,26.3,5.6,35.4,14.6L1223.3,191.7z"/>
	<rect id="XMLID_41_" x="895" y="169.9" class="st3" width="50" height="10"/>
	<rect id="XMLID_39_" x="915" y="144.9" class="st3" width="10" height="125"/>
	<path id="XMLID_38_" class="st3" d="M665.4,255.3c-9,9-21.5,14.6-35.4,14.6c-13.8,0-26.3-5.6-35.4-14.6l7.1-7.1
		c7.2,7.2,17.2,11.7,28.3,11.7c11,0,21-4.5,28.3-11.7L665.4,255.3z"/>
	<path id="XMLID_37_" class="st3" d="M658.3,248.2c6.1-6.1,10.3-14.2,11.4-23.3h-89.4l0,0c-0.2-1.6-0.2-3.3-0.2-5
		c0-27.6,22.4-50,50-50c13.8,0,26.3,5.6,35.4,14.6l-7.1,7.1c-7.2-7.2-17.2-11.7-28.3-11.7c-20.4,0-37.2,15.3-39.7,35h89.4l0,0
		c0.2,1.6,0.2,3.3,0.2,5c0,13.8-5.6,26.3-14.6,35.4L658.3,248.2z"/>
	<path id="XMLID_36_" class="st3" d="M875.4,255.3c-9,9-21.5,14.6-35.4,14.6c-13.8,0-26.3-5.6-35.4-14.6l7.1-7.1
		c7.2,7.2,17.2,11.7,28.3,11.7c11,0,21-4.5,28.3-11.7L875.4,255.3z"/>
	<path id="XMLID_35_" class="st3" d="M868.3,248.2c6.1-6.1,10.3-14.2,11.4-23.3h-89.4l0,0c-0.2-1.6-0.2-3.3-0.2-5
		c0-27.6,22.4-50,50-50c13.8,0,26.3,5.6,35.4,14.6l-7.1,7.1c-7.2-7.2-17.2-11.7-28.3-11.7c-20.4,0-37.2,15.3-39.7,35h89.4l0,0
		c0.2,1.6,0.2,3.3,0.2,5c0,13.8-5.6,26.3-14.6,35.4L868.3,248.2z"/>
	<path id="XMLID_34_" class="st3" d="M706.7,248.2C699.5,241,695,231,695,219.9v-50h-10l0,50c0,13.8,5.6,26.3,14.6,35.4L706.7,248.2
		z"/>
	<path id="XMLID_33_" class="st3" d="M775,219.9c0,22.1-17.9,40-40,40c-11,0-21-4.5-28.3-11.7l-7.1,7c9,9,21.5,14.6,35.4,14.6
		c16.4,0,30.9-7.9,40-20L775,219.9z"/>
	<path id="XMLID_31_" class="st3" d="M706.7,298.2c7.2,7.2,17.2,11.7,28.3,11.7c22.1,0,40-17.9,40-40v-50v-50h10v50v50
		c0,27.6-22.4,50-50,50c-13.8,0-26.3-5.6-35.4-14.6L706.7,298.2z"/>
	<path id="XMLID_30_" class="st3" d="M1000,169.9c-27.6,0-50,22.4-50,50c0,1.7,0.1,3.4,0.2,5h99.5c0,0,0.3-3.3,0.3-5
		C1050,192.3,1027.6,169.9,1000,169.9z M960.3,214.9c2.5-19.7,19.3-35,39.7-35s37.2,15.3,39.7,35L960.3,214.9z"/>
	<path id="XMLID_29_" class="st3" d="M960.3,224.9c2.5,19.7,19.3,35,39.7,35c11,0,21-4.5,28.3-11.7l7.1,7.1
		c-9,9-21.5,14.6-35.4,14.6c-25.9,0-47.2-19.7-49.7-44.9c0,0,0-0.1,0-0.1L960.3,224.9z"/>
	<path id="XMLID_28_" class="st1" d="M665.4,255.3c-9,9-21.5,14.6-35.4,14.6c-13.8,0-26.3-5.6-35.4-14.6l7.1-7.1
		c7.2,7.2,17.2,11.7,28.3,11.7c11,0,21-4.5,28.3-11.7L665.4,255.3z"/>
	<path id="XMLID_27_" class="st1" d="M654.5,251.6l7.1,7.1c1.3-1.1,2.5-2.2,3.7-3.4l-7.1-7.1C657.1,249.4,655.8,250.5,654.5,251.6z"
		/>
	<path id="XMLID_26_" class="st1" d="M875.4,255.3c-9,9-21.5,14.6-35.4,14.6c-13.8,0-26.3-5.6-35.4-14.6l7.1-7.1
		c7.2,7.2,17.2,11.7,28.3,11.7c11,0,21-4.5,28.3-11.7L875.4,255.3z"/>
	<path id="XMLID_25_" class="st1" d="M864.5,251.6l7.1,7.1c1.3-1.1,2.5-2.2,3.7-3.4l-7.1-7.1C867.1,249.4,865.8,250.5,864.5,251.6z"
		/>
	<path id="XMLID_23_" class="st1" d="M770,239.3v16.3c1.8-1.8,3.5-3.7,5-5.7l0-30C775,227,773.2,233.6,770,239.3z"/>
	<path id="XMLID_22_" class="st1" d="M775,219.9c0,22.1-17.9,40-40,40c-11,0-21-4.5-28.3-11.7l-7.1,7c9,9,21.5,14.6,35.4,14.6
		c16.4,0,30.9-7.9,40-20L775,219.9z"/>
	<path id="XMLID_21_" class="st1" d="M703.4,258.7l7.1-7.1c-1.3-1-2.6-2.1-3.8-3.3l-3.9,3.9l-3.1,3.1
		C700.8,256.5,702.1,257.6,703.4,258.7z"/>
	<path id="XMLID_20_" class="st1" d="M960.3,224.9c2.5,19.7,19.3,35,39.7,35c11,0,21-4.5,28.3-11.7l7.1,7.1
		c-9,9-21.5,14.6-35.4,14.6c-25.9,0-47.2-19.7-49.7-44.9c0,0,0-0.1,0-0.1L960.3,224.9z"/>
	<path id="XMLID_19_" class="st1" d="M951,229.9h10.3c-0.4-1.6-0.7-3.3-1-5l-10.1,0c0,0,0,0.1,0,0.1
		C950.4,226.7,950.7,228.3,951,229.9z"/>
	<path id="XMLID_18_" class="st1" d="M1230.4,184.6c9,9,14.6,21.5,14.6,35.4v50h-10v-50c0-11-4.5-21-11.7-28.3L1230.4,184.6z"/>
	<path id="XMLID_17_" class="st1" d="M1223.3,191.7c1.2,1.2,2.3,2.4,3.3,3.8l7.1-7.1c-1.1-1.3-2.2-2.5-3.4-3.7L1223.3,191.7z"/>
	<rect id="XMLID_16_" x="1634.4" y="169.9" class="st0" width="47" height="7"/>
	<polygon id="XMLID_15_" class="st0" points="1654.4,144.9 1654.4,219.9 1654.4,269.9 1661.4,269.9 1661.4,219.9 1661.4,144.9 	"/>
	<polygon id="XMLID_14_" class="st0" points="1370.4,144.9 1370.4,219.9 1370.4,269.9 1377.4,269.9 1377.4,219.9 1377.4,144.9 	"/>
	<path id="XMLID_13_" class="st0" d="M1345.4,250.4c-7.8,7.8-18.5,12.6-30.4,12.6c-23.7,0-43-19.3-43-43s19.3-43,43-43
		c11.9,0,22.6,4.8,30.4,12.6l4.9-4.9c-9-9-21.5-14.6-35.4-14.6c-27.6,0-50,22.4-50,50s22.4,50,50,50c13.8,0,26.3-5.6,35.4-14.6
		L1345.4,250.4z"/>
	<rect id="XMLID_12_" x="1397.4" y="169.9" class="st0" width="7" height="7"/>
	<rect id="XMLID_11_" x="1397.4" y="181.9" class="st0" width="7" height="88"/>
	<path id="XMLID_10_" class="st0" d="M1431.5,223.4c1.8,22.1,20.3,39.5,42.9,39.5c11.9,0,22.6-4.8,30.4-12.6l4.9,4.9
		c-9,9-21.5,14.6-35.3,14.6c-26.4,0-48.1-20.5-49.9-46.5L1431.5,223.4z"/>
	<path id="XMLID_9_" class="st0" d="M1474.4,169.9c-27.6,0-50,22.4-50,50c0,1.2,0,2.3,0.1,3.5l99.8,0c0.1-1.2,0.1-2.3,0.1-3.5
		C1524.4,192.3,1502,169.9,1474.4,169.9z M1431.5,216.4c1.8-22.1,20.3-39.5,42.9-39.5c22.6,0,41.1,17.4,42.9,39.5L1431.5,216.4z"/>
	<path id="XMLID_8_" class="st0" d="M1614.7,184.6l-4.9,4.9c7.8,7.8,12.6,18.5,12.6,30.4v50h7v-50
		C1629.4,206.1,1623.8,193.6,1614.7,184.6z"/>
	<path id="XMLID_7_" class="st0" d="M1579.4,169.9c-27.6,0-50,22.4-50,50v50h7v-50c0-23.7,19.3-43,43-43c11.9,0,22.6,4.8,30.4,12.6
		l4.9-4.9C1605.7,175.5,1593.2,169.9,1579.4,169.9z"/>
	<path id="XMLID_6_" class="st1" d="M1609.8,189.5c1.2,1.2,2.3,2.4,3.3,3.7l5-5c-1.1-1.3-2.2-2.5-3.4-3.7L1609.8,189.5z"/>
	<rect id="XMLID_5_" x="1397.4" y="169.9" class="st1" width="7" height="7"/>
	<path id="XMLID_4_" class="st1" d="M1431.5,223.4c1.8,22.1,20.3,39.5,42.9,39.5c11.9,0,22.6-4.8,30.4-12.6l4.9,4.9
		c-9,9-21.5,14.6-35.3,14.6c-26.4,0-48.1-20.5-49.9-46.5L1431.5,223.4z"/>
	<path id="XMLID_3_" class="st1" d="M1431.5,223.4h-6.1l-0.9,0c0.1,1.7,0.3,3.4,0.6,5h7.1C1431.9,226.8,1431.6,225.1,1431.5,223.4z"
		/>
	<path id="XMLID_2_" class="st1" d="M1614.7,184.6l-4.9,4.9c7.8,7.8,12.6,18.5,12.6,30.4v50h7v-50
		C1629.4,206.1,1623.8,193.6,1614.7,184.6z"/>
</g>
</svg>
