<?xml version="1.0" encoding="utf-8"?>
<!-- Generator: Adobe Illustrator 19.0.0, SVG Export Plug-In . SVG Version: 6.00 Build 0)  -->
<svg version="1.1" xmlns="http://www.w3.org/2000/svg" xmlns:xlink="http://www.w3.org/1999/xlink" x="0px" y="0px"
	 viewBox="0 0 1665 400" style="enable-background:new 0 0 1665 400;" xml:space="preserve">
<style type="text/css">
	.st0{fill:#DAA62F;}
	.st1{fill:#B98F31;}
	.st2{fill:#705D34;}
	.st3{display:none;}
	.st4{display:inline;fill:#705D34;}
	.st5{display:inline;}
	.st6{fill:none;stroke:#29ABE2;stroke-width:2;stroke-miterlimit:10;}
</style>
<g id="Layer_1">
	<path id="XMLID_95_" class="st0" d="M260,0c-55.2,0-100,44.8-100,100v200h40V180c16.7,12.6,37.5,20,60,20c55.2,0,100-44.8,100-100
		C360,44.8,315.2,0,260,0z M260,160c-33.1,0-60-26.9-60-60v0l0,0c0-33.1,26.9-60,60-60c33.1,0,60,26.9,60,60S293.1,160,260,160z"/>
	<path id="XMLID_107_" class="st1" d="M29.3,229.3c-39.1,39.1-39.1,102.4,0,141.4c39.1,39.1,102.4,39.1,141.4,0
		c19.5-19.5,29.3-45.1,29.3-70.7l-40,0c0,15.4-5.9,30.7-17.6,42.4c-23.4,23.4-61.4,23.4-84.9,0s-23.4-61.4,0-84.9s61.4-23.4,84.9,0
		l-70.7,70.7l14.1,14.1l99-99l-14.1-14.1l0,0C131.7,190.2,68.3,190.2,29.3,229.3z"/>
	<g id="XMLID_81_">
		<path id="XMLID_82_" class="st2" d="M520,200H410c0-38.7,31.3-70,70-70c19.3,0,36.8,7.8,49.5,20.5l21.2-21.2
			C532.6,111.2,507.6,100,480,100c-55.2,0-100,44.8-100,100v20h140V200z"/>
		<path id="XMLID_87_" class="st2" d="M550,200c0,38.7-31.3,70-70,70c-19.3,0-36.8-7.8-49.5-20.5l-21.2,21.2
			c18.1,18.1,43.1,29.3,70.7,29.3c55.2,0,100-44.8,100-100H550z"/>
	</g>
	<g id="XMLID_69_">
		<path id="XMLID_74_" class="st2" d="M940,200H830c0-38.7,31.3-70,70-70c19.3,0,36.8,7.8,49.5,20.5l21.2-21.2
			C952.6,111.2,927.6,100,900,100c-55.2,0-100,44.8-100,100v20h140V200z"/>
		<path id="XMLID_73_" class="st2" d="M970,200c0,38.7-31.3,70-70,70c-19.3,0-36.8-7.8-49.5-20.5l-21.2,21.2
			c18.1,18.1,43.1,29.3,70.7,29.3c55.2,0,100-44.8,100-100H970z"/>
	</g>
	<path id="XMLID_63_" class="st2" d="M1145,220h140v-20c0-55.2-44.8-100-100-100c-55.2,0-100,44.8-100,100l0,0
		c0,55.2,44.8,100,100,100c27.6,0,52.6-11.2,70.7-29.3l-21.2-21.2c-12.7,12.7-30.2,20.5-49.5,20.5c-38.7,0-70-31.3-70-70l0,0
		c0-38.7,31.3-70,70-70s70,31.3,70,70h-110V220z"/>
	<g id="XMLID_2_" class="st3">
		<path id="XMLID_80_" class="st4" d="M1635,200c0-38.7-31.3-70-70-70s-70,31.3-70,70h-30c0-55.2,44.8-100,100-100s100,44.8,100,100
			H1635z"/>
		<path id="XMLID_90_" class="st4" d="M1325,200c0-38.7,31.3-70,70-70c38.7,0,70,31.3,70,70h30c0-55.2-44.8-100-100-100
			c-55.2,0-100,44.8-100,100H1325z"/>
		<rect id="XMLID_89_" x="1295" y="200" class="st4" width="30" height="100"/>
		<rect id="XMLID_88_" x="1465" y="200" class="st4" width="30" height="100"/>
		<rect id="XMLID_83_" x="1635" y="200" class="st4" width="30" height="100"/>
	</g>
	<path id="XMLID_16_" class="st2" d="M1565,100c-35.9,0-67.4,18.9-85,47.3c-17.6-28.4-49.1-47.3-85-47.3c-55.2,0-100,44.8-100,100
		v100h30V200c0-38.7,31.3-70,70-70c38.7,0,70,31.3,70,70c0,0,0,0,0,0l0,0v100h30V200c0,0,0,0,0,0c0-38.7,31.3-70,70-70
		c38.7,0,70,31.3,70,70v100h30V200C1665,144.8,1620.2,100,1565,100z"/>
	<g id="XMLID_3_" class="st3">
		<rect id="XMLID_66_" x="970" y="80" class="st4" width="145" height="20"/>
		<rect id="XMLID_77_" x="1027.5" class="st4" width="30" height="300"/>
	</g>
	<polygon id="XMLID_19_" class="st2" points="1115,80 1057.5,80 1057.5,0 1027.5,0 1027.5,80 970,80 970,100 1027.5,100 1027.5,300 
		1057.5,300 1057.5,100 1115,100 	"/>
	<g id="XMLID_7_" class="st3">
		<path id="XMLID_72_" class="st4" d="M620,200c0,38.7,31.3,70,70,70s70-31.3,70-70h30c0,55.2-44.8,100-100,100s-100-44.8-100-100
			H620z"/>
		<rect id="XMLID_71_" x="590" y="100" class="st4" width="30" height="100"/>
		<rect id="XMLID_68_" x="760" y="100" class="st4" width="30" height="100"/>
		<rect id="XMLID_70_" x="760" y="200" class="st4" width="30" height="200"/>
	</g>
	<path id="XMLID_27_" class="st2" d="M790,200L790,200l0-100h-30v100v0c0,38.7-31.3,70-70,70c-38.7,0-70-31.3-70-70V100h-30v100
		c0,55.2,44.8,100,100,100c27.3,0,52-10.9,70-28.6V400h30L790,200C790,200,790,200,790,200z"/>
</g>
<g id="Layer_2" class="st3">
	<g id="XMLID_1_" class="st5">
		<circle id="XMLID_23_" class="st6" cx="352.5" cy="-236" r="100"/>
		<circle id="XMLID_22_" class="st6" cx="352.5" cy="-236" r="70"/>
		<rect id="XMLID_21_" x="252.5" y="-236" class="st6" width="30" height="100"/>
		<rect id="XMLID_6_" x="422.5" y="-236" class="st6" width="30" height="100"/>
		<rect id="XMLID_5_" x="252.5" y="-436" class="st6" width="30" height="200"/>
		<line id="XMLID_4_" class="st6" x1="352.5" y1="-386" x2="352.5" y2="-86"/>
	</g>
	<g id="XMLID_8_" class="st5">
		<circle id="XMLID_38_" class="st6" cx="88" cy="-228" r="100"/>
		<circle id="XMLID_37_" class="st6" cx="88" cy="-228" r="60"/>
		<rect id="XMLID_36_" x="-12" y="-228" class="st6" width="40" height="100"/>
		<rect id="XMLID_35_" x="148" y="-228" class="st6" width="40" height="100"/>
		<rect id="XMLID_34_" x="-12" y="-428" class="st6" width="40" height="200"/>
		<line id="XMLID_33_" class="st6" x1="88" y1="-378" x2="88" y2="-78"/>
	</g>
	<g id="XMLID_39_" class="st5">
		<circle id="XMLID_49_" class="st6" cx="590.5" cy="-222" r="100"/>
		<circle id="XMLID_48_" class="st6" cx="590.5" cy="-222" r="80"/>
		<rect id="XMLID_47_" x="490.5" y="-222" class="st6" width="20" height="100"/>
		<rect id="XMLID_46_" x="670.5" y="-222" class="st6" width="20" height="100"/>
		<rect id="XMLID_44_" x="490.5" y="-422" class="st6" width="20" height="200"/>
		<line id="XMLID_42_" class="st6" x1="590.5" y1="-372" x2="590.5" y2="-72"/>
	</g>
</g>
</svg>
