<svg id="Layer_1" data-name="Layer 1" xmlns="http://www.w3.org/2000/svg" viewBox="0 0 3345 400"><defs><style>.cls-1{fill:#987832;}.cls-2{fill:#c09430;}.cls-3{fill:#705d34;}.cls-4{fill:#87943d;}</style></defs><path class="cls-1" d="M310,100A100,100,0,0,0,210,200V400h40V280a100,100,0,1,0,60-180Zm0,160a60,60,0,0,1-60-60h0a60,60,0,1,1,60,60Z" transform="translate(0)"/><path class="cls-2" d="M100,100a100,100,0,1,0,70.71,170.71l-28.28-28.28A60,60,0,1,1,160,200H60v20H200V200h0A100,100,0,0,0,100,100Z" transform="translate(0)"/><path class="cls-3" d="M570,200H460a70,70,0,0,1,119.5-49.49l21.21-21.22A100,100,0,0,0,430,200v20H570Z" transform="translate(0)"/><path class="cls-3" d="M600,200a70,70,0,0,1-119.5,49.5l-21.21,21.21A100,100,0,0,0,630,200Z" transform="translate(0)"/><path class="cls-3" d="M990,200H880a70,70,0,0,1,119.5-49.49l21.21-21.22A100,100,0,0,0,850,200v20H990Z" transform="translate(0)"/><path class="cls-3" d="M1020,200a70,70,0,0,1-119.5,49.5l-21.21,21.21A100,100,0,0,0,1050,200Z" transform="translate(0)"/><path class="cls-3" d="M1195,220h140V200a100,100,0,0,0-200,0h0a100,100,0,0,0,170.71,70.71L1284.5,249.5A70,70,0,0,1,1165,200h0a70,70,0,0,1,140,0H1195Z" transform="translate(0)"/><path class="cls-3" d="M1615,100a99.92,99.92,0,0,0-85,47.31A100,100,0,0,0,1345,200V300h30V200a70,70,0,0,1,140,0h0V300h30V200h0a70,70,0,0,1,140,0V300h30V200A100,100,0,0,0,1615,100Z" transform="translate(0)"/><polygon class="cls-3" points="1165 80 1107.5 80 1107.5 0 1077.5 0 1077.5 80 1020 80 1020 100 1077.5 100 1077.5 300 1107.5 300 1107.5 100 1165 100 1165 80"/><path class="cls-3" d="M840,200h0V100H810V200h0a70,70,0,0,1-140,0V100H640V200a100,100,0,0,0,170,71.4V400h30V200Z" transform="translate(0)"/><path class="cls-4" d="M3315.71,129.29A100,100,0,0,0,3145,200h0V300h20V200h0a80,80,0,1,1,160,0h20A99.68,99.68,0,0,0,3315.71,129.29Z" transform="translate(0)"/><path class="cls-4" d="M2185,220h140V200a100,100,0,1,0-29.29,70.71l-14.14-14.14A80,80,0,1,1,2305,200H2185Z" transform="translate(0)"/><path class="cls-4" d="M2995,220h140V200a100,100,0,1,0-29.29,70.71l-14.14-14.14A80,80,0,1,1,3115,200H2995Z" transform="translate(0)"/><path class="cls-4" d="M2015,100a100,100,0,0,0-90,56.37A100,100,0,0,0,1735,200V300h20V200a80,80,0,0,1,160,0V300h20V200a80,80,0,0,1,160,0V300h20V200A100,100,0,0,0,2015,100Z" transform="translate(0)"/><path class="cls-4" d="M2615,100a100,100,0,0,0-90,56.37A100,100,0,0,0,2335,200V300h20V200a80,80,0,0,1,160,0V300h20V200a80,80,0,0,1,160,0V300h20V200A100,100,0,0,0,2615,100Z" transform="translate(0)"/><path class="cls-4" d="M2825,100a99.85,99.85,0,0,0-80,40V0h-20V200a100,100,0,1,0,100-100Zm0,180a80,80,0,1,1,80-80A80,80,0,0,1,2825,280Z" transform="translate(0)"/></svg>