<?xml version="1.0" encoding="utf-8"?>
<!-- Generator: Adobe Illustrator 19.0.0, SVG Export Plug-In . SVG Version: 6.00 Build 0)  -->
<svg version="1.1" id="Layer_1" xmlns="http://www.w3.org/2000/svg" xmlns:xlink="http://www.w3.org/1999/xlink" x="0px" y="0px"
	 viewBox="0 0 1655 320" style="enable-background:new 0 0 1655 320;" xml:space="preserve">
<style type="text/css">
	.st0{fill:#8FA740;}
	.st1{opacity:0.15;}
	.st2{fill:#9ECC46;}
	.st3{fill:#8D7D5D;}
</style>
<g id="XMLID_1_">
	<path id="XMLID_166_" class="st0" d="M150,75c0,24.9,20.1,45,45,45c12.4,0,23.7-5,31.8-13.2L248,128c-13.6,13.6-32.3,22-53,22
		c-16.9,0-32.5-5.6-45-15L150,75z"/>
	<path id="XMLID_165_" class="st1" d="M150,75c0,24.9,20.1,45,45,45c12.4,0,23.7-5,31.8-13.2L248,128c-13.6,13.6-32.3,22-53,22
		c-16.9,0-32.5-5.6-45-15L150,75z"/>
	<path id="XMLID_164_" class="st0" d="M195,0c-41.4,0-75,33.6-75,75c0,0,0,88.2,0,112.5h30V75c0-24.9,20.1-45,45-45s45,20.1,45,45
		c0,12.4-5,23.7-13.2,31.8L248,128c13.6-13.6,22-32.3,22-53C270,33.6,236.4,0,195,0z"/>
	<path id="XMLID_163_" class="st1" d="M150,108.6l0,26.4c2.4,1.8,4.9,3.5,7.5,5V99.9c-4.7-7.1-7.5-15.6-7.5-24.8V108.6z"/>
	<path id="XMLID_162_" class="st1" d="M221.1,111.7l21.4,21.4c1.9-1.6,3.8-3.3,5.6-5l-21.2-21.2C225,108.6,223.1,110.2,221.1,111.7z
		"/>
	<g id="XMLID_155_">
		<path id="XMLID_161_" class="st2" d="M55.6,235.6c16.7,8,37.4,5.1,51.2-8.8c8.8-8.8,13.2-20.3,13.2-31.8l30,0
			c0,19.2-7.3,38.4-22,53c-25.7,25.7-65.3,28.8-94.4,9.5L55.6,235.6z"/>
		<path id="XMLID_160_" class="st1" d="M55.6,235.6c16.7,8,37.4,5.1,51.2-8.8c8.8-8.8,13.2-20.3,13.2-31.8l30,0
			c0,19.2-7.3,38.4-22,53c-25.7,25.7-65.3,28.8-94.4,9.5L55.6,235.6z"/>
		<path id="XMLID_157_" class="st2" d="M22,142C-7.3,171.3-7.3,218.7,22,248c3.6,3.6,7.5,6.8,11.7,9.5c0,0,103.9-103.9,103.9-103.9
			c-2.7-4.1-5.9-8-9.5-11.7C98.7,112.7,51.3,112.7,22,142z M34.4,214.4L34.4,214.4c-8-16.7-5.1-37.4,8.8-51.2
			c13.9-13.9,34.5-16.8,51.2-8.8l0,0L34.4,214.4z"/>
		<path id="XMLID_156_" class="st1" d="M33.6,257.6c2.2,1.4,4.4,2.7,6.7,3.9l23.1-23.1c-2.7-0.7-5.3-1.6-7.8-2.8L33.6,257.6z"/>
	</g>
	<path id="XMLID_154_" class="st1" d="M120,181.8l17.6-17.6l0-10.6L120,171.2C120,175.2,120,178.7,120,181.8z"/>
	<path id="XMLID_118_" class="st3" d="M820.4,184.6c9,9,14.6,21.5,14.6,35.4v50h-10v-50c0-11-4.5-21-11.7-28.3L820.4,184.6z"/>
	<path id="XMLID_109_" class="st3" d="M813.3,191.7c-7.2-7.2-17.2-11.7-28.3-11.7c-22.1,0-40,17.9-40,40v50h-10v-50
		c0-22.1-17.9-40-40-40c-22.1,0-40,17.9-40,40v50h-10v-50c0-27.6,22.4-50,50-50c19.8,0,36.9,11.5,45,28.2l0,0
		c8.1-16.7,25.2-28.2,45-28.2c13.8,0,26.3,5.6,35.4,14.6L813.3,191.7z"/>
	<rect id="XMLID_107_" x="485" y="169.9" class="st3" width="50" height="10"/>
	<rect id="XMLID_105_" x="505" y="144.9" class="st3" width="10" height="125"/>
	<path id="XMLID_102_" class="st3" d="M255.4,255.3c-9,9-21.5,14.6-35.4,14.6c-13.8,0-26.3-5.6-35.4-14.6l7.1-7.1
		c7.2,7.2,17.2,11.7,28.3,11.7c11,0,21-4.5,28.3-11.7L255.4,255.3z"/>
	<path id="XMLID_100_" class="st3" d="M248.3,248.2c6.1-6.1,10.3-14.2,11.4-23.3h-89.4l0,0c-0.2-1.6-0.2-3.3-0.2-5
		c0-27.6,22.4-50,50-50c13.8,0,26.3,5.6,35.4,14.6l-7.1,7.1c-7.2-7.2-17.2-11.7-28.3-11.7c-20.4,0-37.2,15.3-39.7,35h89.4l0,0
		c0.2,1.6,0.2,3.3,0.2,5c0,13.8-5.6,26.3-14.6,35.4L248.3,248.2z"/>
	<path id="XMLID_99_" class="st3" d="M465.4,255.3c-9,9-21.5,14.6-35.4,14.6c-13.8,0-26.3-5.6-35.4-14.6l7.1-7.1
		c7.2,7.2,17.2,11.7,28.3,11.7c11,0,21-4.5,28.3-11.7L465.4,255.3z"/>
	<path id="XMLID_98_" class="st3" d="M458.3,248.2c6.1-6.1,10.3-14.2,11.4-23.3h-89.4l0,0c-0.2-1.6-0.2-3.3-0.2-5
		c0-27.6,22.4-50,50-50c13.8,0,26.3,5.6,35.4,14.6l-7.1,7.1c-7.2-7.2-17.2-11.7-28.3-11.7c-20.4,0-37.2,15.3-39.7,35h89.4l0,0
		c0.2,1.6,0.2,3.3,0.2,5c0,13.8-5.6,26.3-14.6,35.4L458.3,248.2z"/>
	<path id="XMLID_95_" class="st3" d="M296.7,248.2C289.5,241,285,231,285,219.9v-50h-10l0,50c0,13.8,5.6,26.3,14.6,35.4L296.7,248.2
		z"/>
	<path id="XMLID_94_" class="st3" d="M365,219.9c0,22.1-17.9,40-40,40c-11,0-21-4.5-28.3-11.7l-7.1,7c9,9,21.5,14.6,35.4,14.6
		c16.4,0,30.9-7.9,40-20L365,219.9z"/>
	<path id="XMLID_93_" class="st3" d="M296.7,298.2c7.2,7.2,17.2,11.7,28.3,11.7c22.1,0,40-17.9,40-40v-50v-50h10v50v50
		c0,27.6-22.4,50-50,50c-13.8,0-26.3-5.6-35.4-14.6L296.7,298.2z"/>
	<path id="XMLID_88_" class="st3" d="M590,169.9c-27.6,0-50,22.4-50,50c0,1.7,0.1,3.4,0.2,5h99.5c0,0,0.3-3.3,0.3-5
		C640,192.3,617.6,169.9,590,169.9z M550.3,214.9c2.5-19.7,19.3-35,39.7-35s37.2,15.3,39.7,35L550.3,214.9z"/>
	<path id="XMLID_86_" class="st3" d="M550.3,224.9c2.5,19.7,19.3,35,39.7,35c11,0,21-4.5,28.3-11.7l7.1,7.1
		c-9,9-21.5,14.6-35.4,14.6c-25.9,0-47.2-19.7-49.7-44.9c0,0,0-0.1,0-0.1L550.3,224.9z"/>
	<path id="XMLID_32_" class="st1" d="M255.4,255.3c-9,9-21.5,14.6-35.4,14.6c-13.8,0-26.3-5.6-35.4-14.6l7.1-7.1
		c7.2,7.2,17.2,11.7,28.3,11.7c11,0,21-4.5,28.3-11.7L255.4,255.3z"/>
	<path id="XMLID_87_" class="st1" d="M244.5,251.6l7.1,7.1c1.3-1.1,2.5-2.2,3.7-3.4l-7.1-7.1C247.1,249.4,245.8,250.5,244.5,251.6z"
		/>
	<path id="XMLID_89_" class="st1" d="M465.4,255.3c-9,9-21.5,14.6-35.4,14.6c-13.8,0-26.3-5.6-35.4-14.6l7.1-7.1
		c7.2,7.2,17.2,11.7,28.3,11.7c11,0,21-4.5,28.3-11.7L465.4,255.3z"/>
	<path id="XMLID_85_" class="st1" d="M454.5,251.6l7.1,7.1c1.3-1.1,2.5-2.2,3.7-3.4l-7.1-7.1C457.1,249.4,455.8,250.5,454.5,251.6z"
		/>
	<path id="XMLID_77_" class="st1" d="M360,239.3v16.3c1.8-1.8,3.5-3.7,5-5.7l0-30C365,227,363.2,233.6,360,239.3z"/>
	<path id="XMLID_57_" class="st1" d="M365,219.9c0,22.1-17.9,40-40,40c-11,0-21-4.5-28.3-11.7l-7.1,7c9,9,21.5,14.6,35.4,14.6
		c16.4,0,30.9-7.9,40-20L365,219.9z"/>
	<path id="XMLID_83_" class="st1" d="M293.4,258.7l7.1-7.1c-1.3-1-2.6-2.1-3.8-3.3l-3.9,3.9l-3.1,3.1
		C290.8,256.5,292.1,257.6,293.4,258.7z"/>
	<path id="XMLID_82_" class="st1" d="M550.3,224.9c2.5,19.7,19.3,35,39.7,35c11,0,21-4.5,28.3-11.7l7.1,7.1
		c-9,9-21.5,14.6-35.4,14.6c-25.9,0-47.2-19.7-49.7-44.9c0,0,0-0.1,0-0.1L550.3,224.9z"/>
	<path id="XMLID_103_" class="st1" d="M541,229.9h10.3c-0.4-1.6-0.7-3.3-1-5l-10.1,0c0,0,0,0.1,0,0.1
		C540.4,226.7,540.7,228.3,541,229.9z"/>
	<path id="XMLID_97_" class="st1" d="M820.4,184.6c9,9,14.6,21.5,14.6,35.4v50h-10v-50c0-11-4.5-21-11.7-28.3L820.4,184.6z"/>
	<path id="XMLID_108_" class="st1" d="M813.3,191.7c1.2,1.2,2.3,2.4,3.3,3.8l7.1-7.1c-1.1-1.3-2.2-2.5-3.4-3.7L813.3,191.7z"/>
	<path id="XMLID_42_" class="st0" d="M1060.1,223.4c1.8,22.1,20.3,39.5,42.9,39.5c11.9,0,22.6-4.8,30.4-12.6l4.9,4.9
		c-9,9-21.5,14.6-35.3,14.6c-26.4,0-48.1-20.5-49.9-46.5L1060.1,223.4z"/>
	<path id="XMLID_39_" class="st0" d="M1103,169.9c-27.6,0-50,22.4-50,50c0,1.2,0,2.3,0.1,3.5c0,0,99.8,0,99.8,0
		c0.1-1.2,0.1-2.3,0.1-3.5C1153,192.3,1130.6,169.9,1103,169.9z M1060.1,216.4c1.8-22.1,20.3-39.5,42.9-39.5
		c22.6,0,41.1,17.4,42.9,39.5C1145.9,216.4,1060.1,216.4,1060.1,216.4z"/>
	<path id="XMLID_38_" class="st0" d="M1468.1,223.4c1.8,22.1,20.3,39.5,42.9,39.5c11.9,0,22.6-4.8,30.4-12.6l4.9,4.9
		c-9,9-21.5,14.6-35.3,14.6c-26.4,0-48.1-20.5-49.9-46.5L1468.1,223.4z"/>
	<path id="XMLID_27_" class="st0" d="M1511,169.9c-27.6,0-50,22.4-50,50c0,1.2,0,2.3,0.1,3.5l99.8,0c0.1-1.2,0.1-2.3,0.1-3.5
		C1561,192.3,1538.6,169.9,1511,169.9z M1468.1,216.4c1.8-22.1,20.3-39.5,42.9-39.5c22.6,0,41.1,17.4,42.9,39.5
		C1553.9,216.4,1468.1,216.4,1468.1,216.4z"/>
	<path id="XMLID_24_" class="st0" d="M1033.4,184.6c9,9,14.6,21.5,14.6,35.4v50h-7v-50c0-11.9-4.8-22.6-12.6-30.4L1033.4,184.6z"/>
	<path id="XMLID_3_" class="st0" d="M998,169.9c-21.1,0-39.2,13.1-46.5,31.6c-7.3-18.5-25.4-31.6-46.5-31.6c-27.6,0-50,22.4-50,50
		v50h7v-50c0-23.7,19.3-43,43-43c23.7,0,43,19.3,43,43v50l0,0h7v-50c0-23.7,19.3-43,43-43c11.9,0,22.6,4.8,30.4,12.6l4.9-4.9
		C1024.3,175.5,1011.8,169.9,998,169.9z"/>
	<path id="XMLID_22_" class="st0" d="M1363,219.9c0-23.7,19.3-43,43-43c11.9,0,22.6,4.8,30.4,12.6l4.9-4.9c-9-9-21.5-14.6-35.4-14.6
		c-18.3,0-34.3,9.8-43,24.5L1363,219.9z"/>
	<path id="XMLID_21_" class="st0" d="M1436.4,189.5c7.8,7.8,12.6,18.5,12.6,30.4c0,23.7-19.3,43-43,43c-23.7,0-43-19.3-43-43v-75h-7
		v75c0,27.6,22.4,50,50,50c27.6,0,50-22.4,50-50c0-13.8-5.6-26.3-14.6-35.4L1436.4,189.5z"/>
	<path id="XMLID_20_" class="st0" d="M1646.4,189.5c-7.8-7.8-18.5-12.6-30.4-12.6c-23.7,0-43,19.3-43,43v50h-7v-50
		c0-27.6,22.4-50,50-50c13.8,0,26.3,5.6,35.4,14.6L1646.4,189.5z"/>
	<path id="XMLID_18_" class="st0" d="M1336.4,184.6c9,9,14.6,21.5,14.6,35.4v50h-7v-50c0-11.9-4.8-22.6-12.6-30.4L1336.4,184.6z"/>
	<path id="XMLID_2_" class="st0" d="M1301,169.9c-21.1,0-39.2,13.1-46.5,31.6c-7.3-18.5-25.4-31.6-46.5-31.6c-27.6,0-50,22.4-50,50
		v50h7v-50c0-23.7,19.3-43,43-43c23.7,0,43,19.3,43,43v50h7v-50c0-23.7,19.3-43,43-43c11.9,0,22.6,4.8,30.4,12.6l4.9-4.9
		C1327.3,175.5,1314.8,169.9,1301,169.9z"/>
	<path id="XMLID_14_" class="st1" d="M1060.1,223.4c1.8,22.1,20.3,39.5,42.9,39.5c11.9,0,22.6-4.8,30.4-12.6l4.9,4.9
		c-9,9-21.5,14.6-35.3,14.6c-26.4,0-48.1-20.5-49.9-46.5L1060.1,223.4z"/>
	<path id="XMLID_13_" class="st1" d="M1060.1,223.4h-6.1l-0.9,0c0.1,1.7,0.3,3.4,0.6,5h7.1C1060.5,226.8,1060.3,225.1,1060.1,223.4z
		"/>
	<path id="XMLID_8_" class="st1" d="M1468.1,223.4c1.8,22.1,20.3,39.5,42.9,39.5c11.9,0,22.6-4.8,30.4-12.6l4.9,4.9
		c-9,9-21.5,14.6-35.3,14.6c-26.4,0-48.1-20.5-49.9-46.5L1468.1,223.4z"/>
	<path id="XMLID_6_" class="st1" d="M1468.1,223.4h-6.1l-0.9,0c0.1,1.7,0.3,3.4,0.6,5h7.1C1468.5,226.8,1468.3,225.1,1468.1,223.4z"
		/>
	<path id="XMLID_101_" class="st1" d="M1033.4,184.6c9,9,14.6,21.5,14.6,35.4v50h-7v-50c0-11.9-4.8-22.6-12.6-30.4L1033.4,184.6z"/>
	<path id="XMLID_60_" class="st1" d="M1028.4,189.6c1.2,1.2,2.3,2.4,3.3,3.8l5-5c-1.1-1.3-2.2-2.5-3.4-3.7L1028.4,189.6z"/>
	<path id="XMLID_55_" class="st1" d="M1336.4,184.6c9,9,14.6,21.5,14.6,35.4v50h-7v-50c0-11.9-4.8-22.6-12.6-30.4L1336.4,184.6z"/>
	<path id="XMLID_50_" class="st1" d="M1331.4,189.6c1.2,1.2,2.3,2.4,3.3,3.8l5-5c-1.1-1.3-2.2-2.5-3.4-3.7L1331.4,189.6z"/>
	<path id="XMLID_49_" class="st1" d="M1363,219.9c0-23.7,19.3-43,43-43c11.9,0,22.6,4.8,30.4,12.6l4.9-4.9c-9-9-21.5-14.6-35.4-14.6
		c-18.3,0-34.3,9.8-43,24.5L1363,219.9z"/>
	<path id="XMLID_48_" class="st1" d="M1368,199.8v-12.4c-1.9,2.2-3.5,4.5-5,7l0,25.5C1363,212.7,1364.8,205.8,1368,199.8z"/>
	<path id="XMLID_47_" class="st1" d="M1436.4,189.5l4.9-4.9c-1.2-1.2-2.4-2.3-3.7-3.4l-5,5C1434,187.2,1435.2,188.4,1436.4,189.5z"
		/>
</g>
</svg>
