<?xml version="1.0" encoding="utf-8"?>
<!-- Generator: Adobe Illustrator 19.0.0, SVG Export Plug-In . SVG Version: 6.00 Build 0)  -->
<svg version="1.1" id="Layer_1" xmlns="http://www.w3.org/2000/svg" xmlns:xlink="http://www.w3.org/1999/xlink" x="0px" y="0px"
	 viewBox="0 0 30 30" style="enable-background:new 0 0 30 30;" xml:space="preserve">
<style type="text/css">
	.st0{fill:none;stroke:#E2DFD6;stroke-width:2;stroke-linecap:round;stroke-miterlimit:10;}
</style>
<g id="XMLID_3_">
	<g id="XMLID_131_">
		<path id="XMLID_137_" class="st0" d="M28.9,10.4v3.9c0,3-2.5,5.3-5.3,5.3h-7.9c-3,0-5.3-2.5-5.3-5.3V6.5c0-3,2.5-5.3,5.3-5.3h3.9"
			/>
		<line id="XMLID_134_" class="st0" x1="28.9" y1="6.5" x2="28.9" y2="1.1"/>
		<line id="XMLID_133_" class="st0" x1="28.9" y1="1.1" x2="23.5" y2="1.1"/>
		<line id="XMLID_132_" class="st0" x1="28.9" y1="1.1" x2="19.7" y2="10.4"/>
	</g>
	<path id="XMLID_2_" class="st0" d="M19.6,23.6c0,3-2.5,5.3-5.3,5.3H6.5c-3,0-5.3-2.5-5.3-5.3v-7.8c0-3,2.5-5.3,5.3-5.3"/>
</g>
</svg>
