<?xml version="1.0" encoding="utf-8"?>
<!-- Generator: Adobe Illustrator 19.0.0, SVG Export Plug-In . SVG Version: 6.00 Build 0)  -->
<svg version="1.1" id="Layer_1" xmlns="http://www.w3.org/2000/svg" xmlns:xlink="http://www.w3.org/1999/xlink" x="0px" y="0px"
	 viewBox="-44 0 80 30" style="enable-background:new -44 0 80 30;" xml:space="preserve">
<style type="text/css">
	.st0{fill:#FFD275;}
	.st1{fill:none;stroke:#FFFFFF;stroke-width:2;stroke-linecap:round;stroke-miterlimit:10;}
</style>
<g id="Highlighted">
	<g id="XMLID_7_">
		<path class="st0" d="M-39,30h70c2.8,0,5-2.2,5-5V5c0-2.8-2.2-5-5-5h-70c-2.8,0-5,2.2-5,5v20C-44,27.8-41.8,30-39,30z"/>
	</g>
	<g id="XMLID_1_">
		<g id="XMLID_4_">
			<line id="XMLID_6_" class="st1" x1="-0.2" y1="9.5" x2="4.8" y2="9.5"/>
			<line id="XMLID_5_" class="st1" x1="4.8" y1="9.5" x2="4.8" y2="4.5"/>
		</g>
		<path id="XMLID_3_" class="st1" d="M4.2,22.6c-1.8,1.8-4.3,2.9-7,2.9c-5.5,0-9.9-4.4-9.9-9.9s4.4-9.9,9.9-9.9c2.7,0,5.2,1.1,7,2.9
			"/>
	</g>
</g>
</svg>
