<?xml version="1.0" encoding="utf-8"?>
<!-- Generator: Adobe Illustrator 19.0.0, SVG Export Plug-In . SVG Version: 6.00 Build 0)  -->
<svg version="1.1" id="Layer_1" xmlns="http://www.w3.org/2000/svg" xmlns:xlink="http://www.w3.org/1999/xlink" x="0px" y="0px"
	 viewBox="0 0 108 30" style="enable-background:new 0 0 108 30;" xml:space="preserve">
<style type="text/css">
	.st0{fill:#EEF5F4;}
	.st1{fill:#BBD6D5;}
</style>
<g id="XMLID_1_">
	<path id="XMLID_615_" class="st0" d="M103,30H0V0h103c2.8,0,5,2.3,5,5v20C108,27.8,105.7,30,103,30z"/>
	<path id="XMLID_103_" class="st1" d="M64.8,9.6C64.8,9.6,64.8,9.6,64.8,9.6c0.6-0.6,0.6-1.5,0-2.1c-0.6-0.6-1.5-0.6-2.1,0l0,0
		L51.4,18.7l-6-6l0,0c-0.6-0.6-1.5-0.6-2.1,0s-0.6,1.5,0,2.1c0,0,0,0,0,0l8.2,8.2L64.8,9.6z"/>
</g>
</svg>
