<?xml version="1.0" encoding="utf-8"?>
<!-- Generator: Adobe Illustrator 19.0.0, SVG Export Plug-In . SVG Version: 6.00 Build 0)  -->
<svg version="1.1" id="Layer_1" xmlns="http://www.w3.org/2000/svg" xmlns:xlink="http://www.w3.org/1999/xlink" x="0px" y="0px"
	 viewBox="-445 2061 108 30" style="enable-background:new -445 2061 108 30;" xml:space="preserve">
<style type="text/css">
	.st0{fill:#BBD6D5;}
	.st1{fill:#705D34;}
</style>
<path id="XMLID_615_" class="st0" d="M-342,2091h-103v-30h103c2.8,0,5,2.3,5,5v20C-337,2088.8-339.3,2091-342,2091z"/>
<path id="XMLID_103_" class="st1" d="M-380.2,2070.6L-380.2,2070.6c0.6-0.6,0.6-1.5,0-2.1c-0.6-0.6-1.5-0.6-2.1,0l0,0l-11.3,11.2
	l-6-6l0,0c-0.6-0.6-1.5-0.6-2.1,0c-0.6,0.6-0.6,1.5,0,2.1l0,0l8.2,8.2L-380.2,2070.6z"/>
</svg>
