<?xml version="1.0" encoding="utf-8"?>
<!-- Generator: Adobe Illustrator 19.0.0, SVG Export Plug-In . SVG Version: 6.00 Build 0)  -->
<svg version="1.1" id="Layer_1" xmlns="http://www.w3.org/2000/svg" xmlns:xlink="http://www.w3.org/1999/xlink" x="0px" y="0px"
	 viewBox="410 0 1655 320" style="enable-background:new 410 0 1655 320;" xml:space="preserve">
<style type="text/css">
	.st0{fill:#8FA740;}
	.st1{opacity:0.15;}
	.st2{fill:#9ECC46;}
</style>
<g>
	<path id="XMLID_166_" class="st0" d="M560,75c0,24.9,20.1,45,45,45c12.4,0,23.7-5,31.8-13.2L658,128c-13.6,13.6-32.3,22-53,22
		c-16.9,0-32.5-5.6-45-15L560,75z"/>
	<path id="XMLID_165_" class="st1" d="M560,75c0,24.9,20.1,45,45,45c12.4,0,23.7-5,31.8-13.2L658,128c-13.6,13.6-32.3,22-53,22
		c-16.9,0-32.5-5.6-45-15L560,75z"/>
	<path id="XMLID_164_" class="st0" d="M605,0c-41.4,0-75,33.6-75,75c0,0,0,88.2,0,112.5h30V75c0-24.9,20.1-45,45-45
		c24.9,0,45,20.1,45,45c0,12.4-5,23.7-13.2,31.8L658,128c13.6-13.6,22-32.3,22-53C680,33.6,646.4,0,605,0z"/>
	<path id="XMLID_163_" class="st1" d="M560,108.6l0,26.4c2.4,1.8,4.9,3.5,7.5,5V99.9c-4.7-7.1-7.5-15.6-7.5-24.8V108.6z"/>
	<path id="XMLID_162_" class="st1" d="M631.1,111.7l21.4,21.4c1.9-1.6,3.8-3.3,5.6-5l-21.2-21.2C635,108.6,633.1,110.2,631.1,111.7z
		"/>
	<g id="XMLID_155_">
		<path id="XMLID_161_" class="st2" d="M465.6,235.6c16.7,8,37.4,5.1,51.2-8.8c8.8-8.8,13.2-20.3,13.2-31.8l30,0
			c0,19.2-7.3,38.4-22,53c-25.7,25.7-65.3,28.8-94.4,9.5L465.6,235.6z"/>
		<path id="XMLID_160_" class="st1" d="M465.6,235.6c16.7,8,37.4,5.1,51.2-8.8c8.8-8.8,13.2-20.3,13.2-31.8l30,0
			c0,19.2-7.3,38.4-22,53c-25.7,25.7-65.3,28.8-94.4,9.5L465.6,235.6z"/>
		<path id="XMLID_157_" class="st2" d="M432,142c-29.3,29.3-29.3,76.8,0,106.1c3.6,3.6,7.5,6.8,11.7,9.5
			c0,0,103.9-103.9,103.9-103.9c-2.7-4.1-5.9-8-9.5-11.7C508.7,112.7,461.3,112.7,432,142z M444.4,214.4L444.4,214.4
			c-8-16.7-5.1-37.4,8.8-51.2c13.9-13.9,34.5-16.8,51.2-8.8l0,0L444.4,214.4z"/>
		<path id="XMLID_156_" class="st1" d="M443.6,257.6c2.2,1.4,4.4,2.7,6.7,3.9l23.1-23.1c-2.7-0.7-5.3-1.6-7.8-2.8L443.6,257.6z"/>
	</g>
	<path id="XMLID_154_" class="st1" d="M530,181.8l17.6-17.6l0-10.6L530,171.2C530,175.2,530,178.7,530,181.8z"/>
	<path id="XMLID_48_" class="st2" d="M868.3,191.7c7.2,7.2,11.7,17.2,11.7,28.3c0,22.1-17.9,40-40,40c-11,0-21-4.5-28.3-11.7
		l-7.1,7.1c9,9,21.5,14.6,35.4,14.6c27.6,0,50-22.4,50-50c0-13.8-5.6-26.3-14.6-35.4L868.3,191.7z"/>
	<path id="XMLID_42_" class="st2" d="M868.3,191.7c-7.2-7.2-17.2-11.7-28.3-11.7c-22.1,0-40,17.9-40,40c0,11,4.5,21,11.7,28.3
		l-7.1,7.1c-9-9-14.6-21.5-14.6-35.4c0-27.6,22.4-50,50-50c13.8,0,26.3,5.6,35.4,14.6L868.3,191.7z"/>
	<polygon id="XMLID_43_" class="st2" points="685,144.9 685,219.9 685,269.9 695,269.9 695,219.9 695,144.9 	"/>
	<path id="XMLID_26_" class="st2" d="M763.3,191.7c7.2,7.2,11.7,17.2,11.7,28.3v50h10c0,0,0-50,0-50c0-13.8-5.6-26.3-14.6-35.4
		L763.3,191.7z"/>
	<path id="XMLID_21_" class="st2" d="M695,219.9c0-22.1,17.9-40,40-40c11,0,21,4.5,28.3,11.7l7.1-7.1c-9-9.1-21.5-14.6-35.4-14.6
		c-16.4,0-30.9,7.9-40,20L695,219.9z"/>
	<path id="XMLID_47_" class="st2" d="M1070.4,184.6c9,9,14.6,21.5,14.6,35.4v50h-10v-50c0-11-4.5-21-11.7-28.3L1070.4,184.6z"/>
	<path id="XMLID_24_" class="st2" d="M1063.3,191.7c-7.2-7.2-17.2-11.7-28.3-11.7c-22.1,0-40,17.9-40,40v50h-10l0-50
		c0-22.1-17.9-40-40-40c-22.1,0-40,17.9-40,40v50h-10v-50c0-27.6,22.4-50,50-50c19.8,0,36.9,11.5,45,28.2l0,0
		c8.1-16.7,25.2-28.2,45-28.2c13.8,0,26.3,5.6,35.4,14.6L1063.3,191.7z"/>
	<path id="XMLID_50_" class="st2" d="M1140,169.9c-27.6,0-50,22.4-50,50c0,1.7,0.1,3.4,0.2,5h99.5c0,0,0.3-3.3,0.3-5
		C1190,192.3,1167.6,169.9,1140,169.9z M1100.3,214.9c2.5-19.7,19.3-35,39.7-35s37.2,15.3,39.7,35L1100.3,214.9z"/>
	<path id="XMLID_49_" class="st2" d="M1100.3,224.9c2.5,19.7,19.3,35,39.7,35c11,0,21-4.5,28.3-11.7l7.1,7.1
		c-9,9-21.5,14.6-35.4,14.6c-25.9,0-47.2-19.7-49.7-44.9c0,0,0-0.1,0-0.1L1100.3,224.9z"/>
	<path id="XMLID_16_" class="st1" d="M695,219.9c0-22.1,17.9-40,40-40c11,0,21,4.5,28.3,11.7l7.1-7.1c-9-9.1-21.5-14.6-35.4-14.6
		c-16.4,0-30.9,7.9-40,20L695,219.9z"/>
	<path id="XMLID_45_" class="st1" d="M700,200.6v-16.3c-1.8,1.8-3.5,3.7-5,5.7l0,30C695,212.9,696.8,206.3,700,200.6z"/>
	<path id="XMLID_44_" class="st1" d="M763.3,191.6l7.1-7.1c-1.2-1.2-2.4-2.3-3.7-3.4l-7.1,7.1C760.8,189.4,762.1,190.5,763.3,191.6z
		"/>
	<path id="XMLID_41_" class="st1" d="M868.3,191.7c7.2,7.2,11.7,17.2,11.7,28.3c0,22.1-17.9,40-40,40c-11,0-21-4.5-28.3-11.7
		l-7.1,7.1c9,9,21.5,14.6,35.4,14.6c27.6,0,50-22.4,50-50c0-13.8-5.6-26.3-14.6-35.4L868.3,191.7z"/>
	<path id="XMLID_51_" class="st1" d="M868.3,191.7c1.2,1.2,2.3,2.4,3.3,3.7l7.1-7.1c-1.1-1.3-2.2-2.5-3.3-3.7L868.3,191.7z"/>
	<path id="XMLID_54_" class="st1" d="M811.7,248.2l-7.1,7.1c1.2,1.2,2.4,2.3,3.7,3.4l7.1-7.1C814.2,250.5,812.9,249.4,811.7,248.2z"
		/>
	<path id="XMLID_97_" class="st1" d="M1070.4,184.6c9,9,14.6,21.5,14.6,35.4v50h-10v-50c0-11-4.5-21-11.7-28.3L1070.4,184.6z"/>
	<path id="XMLID_108_" class="st1" d="M1063.3,191.7c1.2,1.2,2.3,2.4,3.3,3.8l7.1-7.1c-1.1-1.3-2.2-2.5-3.4-3.7L1063.3,191.7z"/>
	<path id="XMLID_82_" class="st1" d="M1100.3,224.9c2.5,19.7,19.3,35,39.7,35c11,0,21-4.5,28.3-11.7l7.1,7.1
		c-9,9-21.5,14.6-35.4,14.6c-25.9,0-47.2-19.7-49.7-44.9c0,0,0-0.1,0-0.1L1100.3,224.9z"/>
	<path id="XMLID_103_" class="st1" d="M1091,229.9h10.3c-0.4-1.6-0.7-3.3-1-5l-10.1,0c0,0,0,0.1,0,0.1
		C1090.4,226.7,1090.7,228.3,1091,229.9z"/>
</g>
</svg>
